<svg width="64" height="70" viewBox="0 0 64 70" fill="none" xmlns="http://www.w3.org/2000/svg">
<path d="M60.5714 7.28471H57.3943C56.7494 6.55879 55.8269 6.14224 54.8571 6.1392H53.7143C53.7143 4.24124 52.1793 2.70265 50.2857 2.70265H46.6469C46.1643 1.3345 44.8763 0.417637 43.4286 0.411621H20.5714C19.1237 0.417637 17.8357 1.3345 17.3531 2.70265H13.7143C11.8207 2.70265 10.2857 4.24124 10.2857 6.1392H9.14286C8.17315 6.14224 7.25056 6.55879 6.60571 7.28471H3.42857C1.53502 7.28471 0 8.8233 0 10.7213V54.2508C0 56.1488 1.53502 57.6874 3.42857 57.6874H22.1509L19.8651 62.2694H16C14.1065 62.2694 12.5714 63.808 12.5714 65.706C12.5808 67.6 14.1104 69.1331 16 69.1425H48C49.8897 69.1331 51.4192 67.6 51.4286 65.706C51.4286 63.808 49.8936 62.2694 48 62.2694H44.1349L41.8491 57.6874H60.5714C62.465 57.6874 64 56.1488 64 54.2508V10.7213C64 8.8233 62.465 7.28471 60.5714 7.28471ZM12.5714 36.8573C12.9374 36.993 13.3241 37.0643 13.7143 37.0681H28.5714C29.8338 37.0681 30.8571 38.0938 30.8571 39.3591H13.7143C13.0831 39.3591 12.5714 38.8463 12.5714 38.2136V36.8573ZM51.4286 6.1392V33.6316C51.4286 34.2642 50.9169 34.7771 50.2857 34.7771H35.4286C34.6229 34.7829 33.8336 35.0052 33.1429 35.4208V23.3219H43.4286C45.3221 23.3219 46.8571 21.7833 46.8571 19.8854V4.99368H50.2857C50.9169 4.99368 51.4286 5.50655 51.4286 6.1392ZM51.4286 36.8573V38.2136C51.4286 38.8463 50.9169 39.3591 50.2857 39.3591H33.1429C33.1429 38.0938 34.1662 37.0681 35.4286 37.0681H50.2857C50.6759 37.0643 51.0626 36.993 51.4286 36.8573ZM19.4286 3.84817C19.4286 3.21552 19.9402 2.70265 20.5714 2.70265H43.4286C44.0598 2.70265 44.5714 3.21552 44.5714 3.84817V19.8854C44.5714 20.518 44.0598 21.0309 43.4286 21.0309H32.2857C32.2356 21.0362 32.186 21.045 32.1371 21.0572C32.092 21.0456 32.0462 21.0368 32 21.0309H29.7143C29.1725 21.0327 28.7063 21.4155 28.5981 21.9477C28.49 22.4799 28.7695 23.015 29.2674 23.2291L25.1429 26.7126V23.3219C25.774 23.3219 26.2857 22.8091 26.2857 22.1764C26.2857 21.5438 25.774 21.0309 25.1429 21.0309H20.5714C19.9402 21.0309 19.4286 20.518 19.4286 19.8854V3.84817ZM12.5714 6.1392C12.5714 5.50655 13.0831 4.99368 13.7143 4.99368H17.1429V19.8854C17.1429 21.7833 18.6779 23.3219 20.5714 23.3219H22.8571V26.7126C22.851 27.624 23.3802 28.4537 24.208 28.8307C25.0331 29.218 26.0083 29.0834 26.6983 28.487L30.8571 24.913V35.4208C30.1664 35.0052 29.3771 34.7829 28.5714 34.7771H13.7143C13.0831 34.7771 12.5714 34.2642 12.5714 33.6316V6.1392ZM8 9.57574C8 8.94309 8.51167 8.43023 9.14286 8.43023H10.2857V38.2136C10.2857 40.1116 11.8207 41.6502 13.7143 41.6502H50.2857C52.1793 41.6502 53.7143 40.1116 53.7143 38.2136V8.43023H54.8571C55.4883 8.43023 56 8.94309 56 9.57574V42.7957C56 43.4283 55.4883 43.9412 54.8571 43.9412H9.14286C8.51167 43.9412 8 43.4283 8 42.7957V9.57574ZM49.1429 65.706C49.1435 66.0151 49.0165 66.3107 48.792 66.5227C48.5835 66.7355 48.2976 66.8542 48 66.8515H16C15.6916 66.8521 15.3966 66.7248 15.1851 66.4998C14.9728 66.2908 14.8544 66.0042 14.8571 65.706C14.8571 65.0733 15.3688 64.5605 16 64.5605H48C48.6312 64.5605 49.1429 65.0733 49.1429 65.706ZM41.5794 62.2694H22.4206L24.7063 57.6874H39.2937L41.5794 62.2694ZM60.5714 55.3963H3.42857C2.79739 55.3963 2.28571 54.8835 2.28571 54.2508V50.8143H6.85714C7.48833 50.8143 8 50.3014 8 49.6688C8 49.0361 7.48833 48.5233 6.85714 48.5233H2.28571V10.7213C2.28571 10.0886 2.79739 9.57574 3.42857 9.57574H5.71429V42.7957C5.71429 44.6936 7.24931 46.2322 9.14286 46.2322H54.8571C56.7507 46.2322 58.2857 44.6936 58.2857 42.7957V9.57574H60.5714C61.2026 9.57574 61.7143 10.0886 61.7143 10.7213V48.5233H11.4286C10.7974 48.5233 10.2857 49.0361 10.2857 49.6688C10.2857 50.3014 10.7974 50.8143 11.4286 50.8143H61.7143V54.2508C61.7143 54.8835 61.2026 55.3963 60.5714 55.3963Z" fill="#FFBC00"/>
<path d="M15.9999 27.904H19.4285C20.0597 27.904 20.5714 27.3911 20.5714 26.7585C20.5714 26.1258 20.0597 25.613 19.4285 25.613H15.9999C15.3688 25.613 14.8571 26.1258 14.8571 26.7585C14.8571 27.3911 15.3688 27.904 15.9999 27.904Z" fill="#FFBC00"/>
<path d="M15.9999 32.4861H19.4285C20.0597 32.4861 20.5714 31.9732 20.5714 31.3406C20.5714 30.7079 20.0597 30.1951 19.4285 30.1951H15.9999C15.3688 30.1951 14.8571 30.7079 14.8571 31.3406C14.8571 31.9732 15.3688 32.4861 15.9999 32.4861Z" fill="#FFBC00"/>
<path d="M36.5714 25.613C35.9402 25.613 35.4285 26.1258 35.4285 26.7585C35.4285 27.3911 35.9402 27.904 36.5714 27.904H47.9999C48.6311 27.904 49.1428 27.3911 49.1428 26.7585C49.1428 26.1258 48.6311 25.613 47.9999 25.613H36.5714Z" fill="#FFBC00"/>
<path d="M47.9999 30.1951H36.5714C35.9402 30.1951 35.4285 30.7079 35.4285 31.3406C35.4285 31.9732 35.9402 32.4861 36.5714 32.4861H47.9999C48.6311 32.4861 49.1428 31.9732 49.1428 31.3406C49.1428 30.7079 48.6311 30.1951 47.9999 30.1951Z" fill="#FFBC00"/>
<path d="M22.8572 17.5943H28.5715C29.2027 17.5943 29.7143 17.0814 29.7143 16.4488C29.7143 15.8161 29.2027 15.3033 28.5715 15.3033H22.8572C22.226 15.3033 21.7143 15.8161 21.7143 16.4488C21.7143 17.0814 22.226 17.5943 22.8572 17.5943Z" fill="#FFBC00"/>
<path d="M22.8572 13.0123H34.2858C34.9169 13.0123 35.4286 12.4994 35.4286 11.8668C35.4286 11.2341 34.9169 10.7213 34.2858 10.7213H22.8572C22.226 10.7213 21.7143 11.2341 21.7143 11.8668C21.7143 12.4994 22.226 13.0123 22.8572 13.0123Z" fill="#FFBC00"/>
<path d="M41.1429 10.7213H38.8572C38.226 10.7213 37.7143 11.2341 37.7143 11.8668C37.7143 12.4994 38.226 13.0123 38.8572 13.0123H41.1429C41.7741 13.0123 42.2858 12.4994 42.2858 11.8668C42.2858 11.2341 41.7741 10.7213 41.1429 10.7213Z" fill="#FFBC00"/>
<path d="M29.7144 8.43025H41.1429C41.7741 8.43025 42.2858 7.91739 42.2858 7.28474C42.2858 6.65209 41.7741 6.13922 41.1429 6.13922H29.7144C29.0832 6.13922 28.5715 6.65209 28.5715 7.28474C28.5715 7.91739 29.0832 8.43025 29.7144 8.43025Z" fill="#FFBC00"/>
<path d="M22.8572 8.43025H25.1429C25.7741 8.43025 26.2858 7.91739 26.2858 7.28474C26.2858 6.65209 25.7741 6.13922 25.1429 6.13922H22.8572C22.226 6.13922 21.7143 6.65209 21.7143 7.28474C21.7143 7.91739 22.226 8.43025 22.8572 8.43025Z" fill="#FFBC00"/>
</svg>
