<svg width="64" height="65" viewBox="0 0 64 65" fill="none" xmlns="http://www.w3.org/2000/svg">
<path d="M3.20117 54.3068H20.6753L18.542 58.5834H14.9345C13.1672 58.5834 11.7345 60.0194 11.7345 61.7908C11.7345 63.5622 13.1672 64.9982 14.9345 64.9982H44.8011C46.5684 64.9982 48.0011 63.5622 48.0011 61.7908C48.0011 60.0194 46.5684 58.5834 44.8011 58.5834H41.1937L39.0603 54.3068H56.5345C58.3525 54.2486 59.7823 52.7295 59.7345 50.9069V12.7854L60.7553 11.7622L60.7638 11.7494L63.055 9.45501C64.315 8.1882 64.315 6.13839 63.055 4.87158L59.9883 1.79885C58.7247 0.535312 56.6792 0.535312 55.4155 1.79885L53.1265 4.09431L53.1137 4.10286L52.0929 5.12603H3.20117C1.3831 5.18422 -0.0467006 6.70333 0.00116767 8.52592V50.9069C-0.0467006 52.7295 1.3831 54.2486 3.20117 54.3068ZM45.8678 61.7908C45.8678 62.3813 45.3902 62.8599 44.8011 62.8599H14.9345C14.3454 62.8599 13.8678 62.3813 13.8678 61.7908C13.8678 61.2003 14.3454 60.7216 14.9345 60.7216H44.8011C45.3902 60.7216 45.8678 61.2003 45.8678 61.7908ZM38.8086 58.5834H20.927L23.0604 54.3068H36.6753L38.8086 58.5834ZM43.5937 17.5688L47.3185 21.3011L41.6065 23.2833L43.5937 17.5688ZM47.7195 18.6807L56.9345 9.44432L58.4929 11.0063L49.2811 20.2427L47.7195 18.6807ZM56.9238 3.30848C57.1301 3.10146 57.41 2.98513 57.7019 2.98513C57.9938 2.98513 58.2738 3.10146 58.4801 3.30848L61.5478 6.38335C61.9773 6.81418 61.9773 7.5124 61.5478 7.94323L60.0011 9.49243L55.3782 4.86089L56.9238 3.30848ZM53.8678 6.37052L55.4262 7.93254L46.2113 17.1689L44.6529 15.6037L53.8678 6.37052ZM3.20117 7.26433H49.9595L42.3862 14.8553C42.274 14.9713 42.19 15.1118 42.1409 15.2658H42.1334L39.5873 22.5863C39.3556 23.2406 39.4552 23.9669 39.8545 24.5342C40.2539 25.1015 40.9031 25.4392 41.5958 25.4398C41.8428 25.4396 42.088 25.3976 42.3211 25.3158L49.6246 22.767V22.7595C49.7782 22.7102 49.9184 22.6261 50.0342 22.5136L57.6075 14.9226V45.7536H10.6678C10.0787 45.7536 9.60116 46.2323 9.60116 46.8227C9.60116 47.4132 10.0787 47.8919 10.6678 47.8919H57.6011V50.9069C57.6411 51.5462 57.1702 52.1031 56.5345 52.1685H3.20117C2.56537 52.1031 2.09451 51.5462 2.1345 50.9069V47.8919H6.40116C6.99027 47.8919 7.46783 47.4132 7.46783 46.8227C7.46783 46.2323 6.99027 45.7536 6.40116 45.7536H2.1345V8.52592C2.09451 7.88656 2.56537 7.32966 3.20117 7.26433Z" fill="#FFBC00"/>
<path d="M7.46779 24.3707H33.0678C34.8351 24.3707 36.2678 22.9347 36.2678 21.1633V12.6101C36.2678 10.8387 34.8351 9.40265 33.0678 9.40265H7.46779C5.70048 9.40265 4.26779 10.8387 4.26779 12.6101V21.1633C4.26779 22.9347 5.70048 24.3707 7.46779 24.3707ZM34.1344 12.6101V15.8175H30.9344C30.3453 15.8175 29.8678 15.3389 29.8678 14.7484V11.5409H33.0678C33.6569 11.5409 34.1344 12.0196 34.1344 12.6101ZM6.40112 12.6101C6.40112 12.0196 6.87869 11.5409 7.46779 11.5409H27.7344V14.7484C27.7344 16.5198 29.1671 17.9558 30.9344 17.9558H34.1344V21.1633C34.1344 21.7537 33.6569 22.2324 33.0678 22.2324H7.46779C6.87869 22.2324 6.40112 21.7537 6.40112 21.1633V12.6101Z" fill="#FFBC00"/>
<path d="M21.3345 26.5089H7.46783C6.28963 26.5089 5.3345 27.4663 5.3345 28.6472V41.477C5.3345 42.6579 6.28963 43.6153 7.46783 43.6153H21.3345C22.5127 43.6153 23.4678 42.6579 23.4678 41.477V28.6472C23.4678 27.4663 22.5127 26.5089 21.3345 26.5089ZM21.3345 28.6472V37.2004H7.46783V28.6472H21.3345ZM7.46783 41.477V39.3387H21.3345V41.477H7.46783Z" fill="#FFBC00"/>
<path d="M13.1137 34.7488C13.5302 35.1662 14.2054 35.1662 14.622 34.7488L15.6886 33.6797C16.105 33.2622 16.105 32.5854 15.6886 32.1679L14.622 31.0988C14.2034 30.6936 13.5381 30.6994 13.1267 31.1118C12.7152 31.5242 12.7095 32.191 13.1137 32.6105L13.4262 32.9238L13.1137 33.2371C12.6973 33.6546 12.6973 34.3313 13.1137 34.7488Z" fill="#FFBC00"/>
<path d="M25.6011 28.6472C25.6011 29.2377 26.0787 29.7164 26.6678 29.7164H54.4011C54.9902 29.7164 55.4677 29.2377 55.4677 28.6472C55.4677 28.0567 54.9902 27.5781 54.4011 27.5781H26.6678C26.0787 27.5781 25.6011 28.0567 25.6011 28.6472Z" fill="#FFBC00"/>
<path d="M54.4011 31.8547H50.1344C49.5453 31.8547 49.0677 32.3333 49.0677 32.9238C49.0677 33.5143 49.5453 33.993 50.1344 33.993H54.4011C54.9902 33.993 55.4677 33.5143 55.4677 32.9238C55.4677 32.3333 54.9902 31.8547 54.4011 31.8547Z" fill="#FFBC00"/>
<path d="M26.6678 33.993H45.8678C46.4569 33.993 46.9344 33.5143 46.9344 32.9238C46.9344 32.3333 46.4569 31.8547 45.8678 31.8547H26.6678C26.0787 31.8547 25.6011 32.3333 25.6011 32.9238C25.6011 33.5143 26.0787 33.993 26.6678 33.993Z" fill="#FFBC00"/>
<path d="M54.4011 36.1312H34.1344C33.5453 36.1312 33.0677 36.6099 33.0677 37.2004C33.0677 37.7908 33.5453 38.2695 34.1344 38.2695H54.4011C54.9902 38.2695 55.4677 37.7908 55.4677 37.2004C55.4677 36.6099 54.9902 36.1312 54.4011 36.1312Z" fill="#FFBC00"/>
<path d="M26.6678 38.2695H29.8678C30.4569 38.2695 30.9344 37.7908 30.9344 37.2004C30.9344 36.6099 30.4569 36.1312 29.8678 36.1312H26.6678C26.0787 36.1312 25.6011 36.6099 25.6011 37.2004C25.6011 37.7908 26.0787 38.2695 26.6678 38.2695Z" fill="#FFBC00"/>
<path d="M40.5344 40.4078H26.6678C26.0787 40.4078 25.6011 40.8865 25.6011 41.477C25.6011 42.0675 26.0787 42.5461 26.6678 42.5461H40.5344C41.1235 42.5461 41.6011 42.0675 41.6011 41.477C41.6011 40.8865 41.1235 40.4078 40.5344 40.4078Z" fill="#FFBC00"/>
</svg>
