<svg width="64" height="65" viewBox="0 0 64 65" fill="none" xmlns="http://www.w3.org/2000/svg">
<path d="M60.7989 0.418579H3.2011C1.38225 0.476755 -0.0478364 1.99713 0.00122553 3.82048V50.472C-0.0478364 52.2953 1.38225 53.8157 3.2011 53.8739H21.7412L19.6079 58.1503H16.0006C14.2334 58.1503 12.8007 59.5863 12.8007 61.3576C12.8007 63.129 14.2334 64.5649 16.0006 64.5649H47.9994C49.7666 64.5649 51.1993 63.129 51.1993 61.3576C51.1993 59.5863 49.7666 58.1503 47.9994 58.1503H44.3921L42.2588 53.8739H60.7989C62.6178 53.8157 64.0478 52.2953 63.9988 50.472V3.82048C64.0478 1.99713 62.6178 0.476755 60.7989 0.418579V0.418579ZM49.066 61.3576C49.066 61.9481 48.5885 62.4267 47.9994 62.4267H16.0006C15.4115 62.4267 14.934 61.9481 14.934 61.3576C14.934 60.7672 15.4115 60.2885 16.0006 60.2885H47.9994C48.5885 60.2885 49.066 60.7672 49.066 61.3576ZM42.0071 58.1503H21.9929L24.1262 53.8739H39.8738L42.0071 58.1503ZM60.7989 51.7357H3.2011C2.56473 51.6698 2.09386 51.1119 2.13448 50.472V47.4593H6.40098C6.99006 47.4593 7.46761 46.9806 7.46761 46.3901C7.46761 45.7997 6.99006 45.321 6.40098 45.321H2.13448V3.82048C2.09386 3.18053 2.56473 2.62266 3.2011 2.55679H60.7989C61.4353 2.62266 61.9061 3.18053 61.8655 3.82048V45.321H10.6675C10.0784 45.321 9.60086 45.7997 9.60086 46.3901C9.60086 46.9806 10.0784 47.4593 10.6675 47.4593H61.8655V50.472C61.9061 51.1119 61.4353 51.6698 60.7989 51.7357Z" fill="#FFBC00"/>
<path d="M16.0006 5.76411C16.0006 5.17366 15.5231 4.69501 14.934 4.69501H6.40098C5.22282 4.69501 4.26773 5.65232 4.26773 6.83322V11.1096C4.26773 11.7001 4.74528 12.1788 5.33436 12.1788C5.92344 12.1788 6.40098 11.7001 6.40098 11.1096V6.83322H14.934C15.5231 6.83322 16.0006 6.35456 16.0006 5.76411Z" fill="#FFBC00"/>
<path d="M19.2005 28.2154C19.718 28.2159 20.1604 28.5887 20.25 29.0995C20.3395 29.6104 20.0503 30.112 19.5639 30.2893C19.0776 30.4665 18.5345 30.2683 18.2757 29.8191C17.9724 29.3276 17.3343 29.1667 16.8351 29.4558C16.3358 29.7449 16.1562 30.3793 16.4294 30.8882C17.2058 32.2361 18.8358 32.8308 20.295 32.2984C21.7542 31.766 22.6215 30.2604 22.3518 28.7275C22.0821 27.1947 20.7534 26.0772 19.2005 26.0772C18.683 26.0767 18.2405 25.7039 18.151 25.193C18.0614 24.6822 18.3507 24.1806 18.837 24.0033C19.3234 23.8261 19.8665 24.0243 20.1252 24.4735C20.4286 24.965 21.0666 25.1259 21.5659 24.8368C22.0651 24.5477 22.2448 23.9133 21.9716 23.4044C21.1951 22.0565 19.5652 21.4618 18.1059 21.9942C16.6467 22.5266 15.7795 24.0322 16.0491 25.5651C16.3188 27.0979 17.6476 28.2154 19.2005 28.2154Z" fill="#FFBC00"/>
<path d="M43.7329 32.4917H45.8661C46.4552 32.4917 46.9327 32.0131 46.9327 31.4226C46.9327 30.8322 46.4552 30.3535 45.8661 30.3535H43.7329V28.2153H44.7995C45.3886 28.2153 45.8661 27.7366 45.8661 27.1462C45.8661 26.5557 45.3886 26.0771 44.7995 26.0771H43.7329V23.9389H45.8661C46.4552 23.9389 46.9327 23.4602 46.9327 22.8698C46.9327 22.2793 46.4552 21.8007 45.8661 21.8007H43.7329C42.5547 21.8007 41.5996 22.758 41.5996 23.9389V30.3535C41.5996 31.5344 42.5547 32.4917 43.7329 32.4917Z" fill="#FFBC00"/>
<path d="M37.3331 32.4917H38.3997C38.9888 32.4917 39.4664 32.0131 39.4664 31.4226C39.4664 30.8322 38.9888 30.3535 38.3997 30.3535H37.3331V22.8698C37.3331 22.2793 36.8556 21.8007 36.2665 21.8007C35.6774 21.8007 35.1999 22.2793 35.1999 22.8698V30.3535C35.1999 31.5344 36.1549 32.4917 37.3331 32.4917Z" fill="#FFBC00"/>
<path d="M25.3112 32.4523C25.5836 32.5292 25.8754 32.4945 26.1222 32.3558C26.3691 32.217 26.5508 31.9856 26.6274 31.7125L27.3068 29.2845H30.2934L30.976 31.7125C31.1052 32.1724 31.5232 32.4906 32 32.4918C32.098 32.4918 32.1956 32.4785 32.2901 32.4523C32.5626 32.3755 32.7935 32.1934 32.9319 31.9459C33.0704 31.6985 33.105 31.4061 33.0282 31.133L30.8502 23.3895C30.6074 22.4544 29.7651 21.8018 28.8012 21.8018C27.8372 21.8018 26.995 22.4544 26.7522 23.3895L24.5741 31.133C24.4973 31.4059 24.5318 31.6982 24.67 31.9456C24.8083 32.1931 25.0389 32.3753 25.3112 32.4523ZM29.6886 27.1463H27.9052L28.8001 23.97L29.6886 27.1463Z" fill="#FFBC00"/>
<path d="M20.2671 34.6301H17.0672C16.4782 34.6301 16.0006 35.1087 16.0006 35.6992C16.0006 36.2896 16.4782 36.7683 17.0672 36.7683H20.2671C20.8562 36.7683 21.3337 36.2896 21.3337 35.6992C21.3337 35.1087 20.8562 34.6301 20.2671 34.6301Z" fill="#FFBC00"/>
<path d="M24.5336 36.7683H46.9327C47.5218 36.7683 47.9993 36.2896 47.9993 35.6992C47.9993 35.1087 47.5218 34.6301 46.9327 34.6301H24.5336C23.9445 34.6301 23.4669 35.1087 23.4669 35.6992C23.4669 36.2896 23.9445 36.7683 24.5336 36.7683Z" fill="#FFBC00"/>
<path d="M18.8805 16.4552H16.0006C12.4676 16.4587 9.60439 19.3286 9.60086 22.8698V35.6991C9.60439 39.2403 12.4676 42.1102 16.0006 42.1137H47.9994C51.5324 42.1102 54.3956 39.2403 54.3991 35.6991V22.8698C54.3956 19.3286 51.5324 16.4587 47.9994 16.4552H45.1195L36.0127 10.3709C36.1756 9.92215 36.2614 9.44895 36.2665 8.97143C36.2665 6.60963 34.3563 4.69501 32 4.69501C29.6437 4.69501 27.7335 6.60963 27.7335 8.97143C27.7386 9.44895 27.8244 9.92215 27.9874 10.3709L18.8805 16.4552ZM52.2659 22.8698V35.6991C52.2659 38.0609 50.3557 39.9755 47.9994 39.9755H16.0006C13.6443 39.9755 11.7341 38.0609 11.7341 35.6991V22.8698C11.7341 20.508 13.6443 18.5934 16.0006 18.5934H47.9994C50.3557 18.5934 52.2659 20.508 52.2659 22.8698ZM22.7204 16.4552L29.1681 12.1488C30.7694 13.613 33.22 13.613 34.8212 12.1488L41.2796 16.4552H22.7204ZM32 6.83322C33.1782 6.83322 34.1333 7.79053 34.1333 8.97143C34.1333 10.1523 33.1782 11.1096 32 11.1096C30.8218 11.1096 29.8668 10.1523 29.8668 8.97143C29.8668 7.79053 30.8218 6.83322 32 6.83322Z" fill="#FFBC00"/>
<path d="M5.33436 16.4552C5.92344 16.4552 6.40098 15.9765 6.40098 15.3861C6.40098 14.7956 5.92344 14.317 5.33436 14.317C4.74528 14.317 4.26773 14.7956 4.26773 15.3861C4.26773 15.9765 4.74528 16.4552 5.33436 16.4552Z" fill="#FFBC00"/>
</svg>
