<svg width="64" height="65" viewBox="0 0 64 65" fill="none" xmlns="http://www.w3.org/2000/svg">
<path d="M62.2443 33.2535C61.9702 33.0732 61.7096 32.8731 61.4645 32.6548C61.6102 32.3452 61.7803 32.0477 61.9733 31.7653C62.5067 30.9324 63.1083 29.9894 62.704 29.0111C62.2997 28.0329 61.1915 27.7806 60.2176 27.5678C59.8898 27.5057 59.5671 27.4189 59.2523 27.308C59.269 26.9701 59.3121 26.6341 59.3813 26.303C59.5552 25.3247 59.7536 24.2171 59.0016 23.4633C58.2496 22.7096 57.1445 22.9074 56.1675 23.0827C55.8387 23.1572 55.5038 23.2005 55.1669 23.2121C55.0558 22.8967 54.9692 22.5732 54.9077 22.2445C54.6944 21.2684 54.4555 20.1618 53.4677 19.7513C52.48 19.3407 51.5477 19.9501 50.7189 20.4836C50.4375 20.677 50.1411 20.8476 49.8325 20.9936C49.6138 20.7482 49.4134 20.487 49.2331 20.2121C48.6613 19.3867 48.0128 18.4522 46.9333 18.4522C45.8539 18.4522 45.2064 19.3867 44.6336 20.2121C44.4536 20.487 44.2536 20.7482 44.0352 20.9936C43.7263 20.8476 43.4295 20.6771 43.1477 20.4836C42.3179 19.949 41.3781 19.3428 40.4 19.7513C39.4219 20.1597 39.1723 21.2673 38.96 22.2424C38.8985 22.5718 38.8119 22.896 38.7008 23.2121C38.624 23.2121 38.5163 23.2014 38.4 23.1875V4.55332C38.4 2.19143 36.4897 0.276733 34.1333 0.276733H4.26667C1.91025 0.276733 0 2.19143 0 4.55332V38.766C0 41.1279 1.91025 43.0426 4.26667 43.0426H32.0512C32.5588 43.2847 33.0972 43.4559 33.6512 43.5516C33.9791 43.6136 34.3018 43.7005 34.6165 43.8114C34.5998 44.1492 34.5567 44.4853 34.4875 44.8164C34.3136 45.7936 34.1152 46.9023 34.8672 47.656C35.1263 47.9137 35.458 48.0853 35.8176 48.1478L31.4859 60.304C31.2535 60.9714 31.472 61.7131 32.0289 62.1468C32.5858 62.5805 33.3568 62.6095 33.9445 62.2189L36.0245 60.8397C36.0245 60.8397 36.144 60.8717 36.1557 60.8717L36.8917 63.2666C37.0914 63.9394 37.7 64.4071 38.4 64.4256H38.464C39.1596 64.4256 39.7807 63.9887 40.0171 63.3329L44.5067 50.717L44.6379 50.9041C45.2053 51.7316 45.8539 52.665 46.9333 52.665C48.0128 52.665 48.6603 51.7305 49.2331 50.9062L49.3643 50.718L53.8667 63.3564C54.107 64.0016 54.723 64.4283 55.4101 64.4256H55.4667C56.1651 64.4061 56.7724 63.9397 56.9728 63.2688L57.7088 60.8728L56.6891 60.5585L57.84 60.8407L59.9115 62.2146C60.5009 62.6135 61.2794 62.5869 61.8404 62.1488C62.4013 61.7107 62.6173 60.9605 62.3755 60.2901L58.0416 48.151C58.405 48.0895 58.7404 47.9166 59.0016 47.656C59.7483 46.9076 59.5552 45.7946 59.3813 44.8164C59.3121 44.4856 59.269 44.1499 59.2523 43.8124C59.5673 43.7011 59.8904 43.6142 60.2187 43.5526C61.1915 43.3388 62.2955 43.0993 62.7051 42.1093C63.1147 41.1192 62.5067 40.1848 61.9744 39.3541C61.7812 39.0718 61.611 38.7743 61.4656 38.4645C61.7107 38.2463 61.9713 38.0462 62.2453 37.8658C63.0677 37.2917 64 36.6406 64 35.5586C64 34.4766 63.0677 33.8277 62.2443 33.2535ZM4.26667 2.41503H34.1333C35.3115 2.41503 36.2667 3.37238 36.2667 4.55332V22.9256C35.7475 22.9099 35.2434 23.1023 34.8661 23.4601C34.1195 24.2085 34.3125 25.3226 34.4864 26.3009C34.5556 26.6316 34.5988 26.9673 34.6155 27.3048C34.3003 27.4155 33.9772 27.5024 33.6491 27.5646C32.6752 27.7784 31.5723 28.0179 31.1627 29.0079C31.0089 29.3919 30.9905 29.817 31.1104 30.2129H2.13333V4.55332C2.13333 3.37238 3.08846 2.41503 4.26667 2.41503ZM31.8933 39.353C31.5567 39.828 31.2932 40.3509 31.1115 40.9043H4.26667C3.08846 40.9043 2.13333 39.947 2.13333 38.766V32.3512H32.2507C32.308 32.4485 32.3586 32.5495 32.4021 32.6537C32.1574 32.8727 31.8967 33.0732 31.6224 33.2535C30.7989 33.8277 29.8667 34.4777 29.8667 35.5586C29.8667 36.6395 30.7989 37.2906 31.6224 37.8637C31.8962 38.0447 32.1568 38.2452 32.4021 38.4635C32.2567 38.7732 32.0866 39.0707 31.8933 39.353ZM38.4971 61.232L38.1877 60.2281C37.9742 59.5583 37.4554 59.0303 36.7904 58.8061C36.1395 58.5745 35.4174 58.6674 34.8459 59.0563L33.9925 59.623L38.1525 47.9693C38.3358 47.9394 38.5207 47.9202 38.7061 47.9115C38.8172 48.2273 38.9039 48.5511 38.9653 48.8802C39.1787 49.8563 39.4176 50.9629 40.4053 51.3734C40.9447 51.5728 41.5431 51.5339 42.0523 51.2665L38.4971 61.232ZM59.0315 59.0638C58.4582 58.6699 57.7317 58.5741 57.0763 58.8061C56.407 59.0332 55.886 59.5666 55.6736 60.242L55.3707 61.231L51.8219 51.2612C52.3305 51.528 52.9279 51.5668 53.4667 51.3681C54.4544 50.9575 54.6944 49.852 54.9067 48.8759C54.9681 48.5468 55.0548 48.223 55.1659 47.9073C55.3473 47.904 55.5286 47.9201 55.7067 47.9554L59.8752 59.6219L59.0315 59.0638ZM61.0261 36.1103C60.2366 36.5087 59.6321 37.1986 59.3397 38.0348C59.2957 38.935 59.5951 39.8184 60.1771 40.5055C60.3093 40.713 60.5067 41.0209 60.6176 41.2454C60.3765 41.3267 60.0107 41.4068 59.7643 41.4592C58.8753 41.5255 58.0464 41.9344 57.4517 42.6C57.0633 43.4083 57.0021 44.3359 57.2811 45.1884C57.3248 45.4354 57.3877 45.8021 57.4069 46.0544C57.1552 46.0384 56.7893 45.9732 56.5429 45.9293C55.6926 45.6486 54.7667 45.7099 53.9605 46.1004C53.2964 46.6963 52.8888 47.5272 52.8235 48.4183C52.7701 48.6653 52.6901 49.0309 52.6101 49.2736C52.3861 49.1614 52.0768 48.9646 51.8731 48.831C51.1873 48.2466 50.3048 47.9468 49.4059 47.9928C48.5718 48.2855 47.8836 48.8911 47.4859 49.682C47.3155 49.938 47.131 50.1843 46.9333 50.4198C46.7365 50.1859 46.5531 49.941 46.384 49.6863C45.9858 48.8958 45.2977 48.2904 44.464 47.9971C44.3484 47.9741 44.2309 47.9627 44.1131 47.9629C43.3409 48.0514 42.6086 48.3535 41.9979 48.8353C41.7909 48.9689 41.4848 49.1656 41.2608 49.2768C41.175 48.9956 41.1038 48.7101 41.0475 48.4215C40.9812 47.5313 40.5737 46.7014 39.9104 46.1057C39.1041 45.7149 38.1778 45.6532 37.3269 45.9336C37.0805 45.9774 36.7157 46.0405 36.464 46.0587C36.4911 45.7685 36.5327 45.4798 36.5888 45.1938C36.8682 44.3406 36.807 43.4121 36.4181 42.6032C35.8232 41.9388 34.9949 41.5308 34.1067 41.4646C33.8188 41.4076 33.534 41.3363 33.2533 41.2507C33.36 41.0262 33.5616 40.7162 33.6939 40.5109C34.2761 39.8239 34.5755 38.9404 34.5312 38.0401C34.2389 37.2039 33.6343 36.514 32.8448 36.1156C32.5885 35.944 32.3421 35.758 32.1067 35.5586C32.3402 35.3616 32.5845 35.1778 32.8384 35.008C33.6279 34.6096 34.2325 33.9197 34.5248 33.0835C34.5688 32.1834 34.2698 31.3002 33.6885 30.6127C33.5552 30.4053 33.3579 30.0974 33.2469 29.8729C33.5276 29.7874 33.8124 29.716 34.1003 29.659C34.9891 29.5932 35.818 29.1847 36.4128 28.5193C36.8013 27.7107 36.8625 26.7827 36.5835 25.9299C36.5397 25.6829 36.4768 25.3172 36.4576 25.0649C36.7093 25.081 37.0752 25.1462 37.3205 25.19C38.1713 25.4708 39.0975 25.4095 39.904 25.0189C40.568 24.4229 40.9756 23.592 41.0411 22.701C41.0944 22.4541 41.1744 22.0873 41.2544 21.8457C41.4784 21.958 41.7877 22.1547 41.9915 22.2873C42.6777 22.8709 43.5598 23.171 44.4587 23.1266C45.2929 22.8336 45.9812 22.2276 46.3787 21.4362C46.5503 21.1802 46.7354 20.9336 46.9333 20.6975C47.1296 20.9317 47.313 21.1766 47.4827 21.4309C47.8802 22.2223 48.5684 22.8282 49.4027 23.1212C50.3012 23.1656 51.183 22.8655 51.8688 22.2819C52.0757 22.1494 52.3819 21.9526 52.6059 21.8404C52.6916 22.1216 52.7628 22.4071 52.8192 22.6957C52.8859 23.5864 53.2933 24.4168 53.9563 25.0136C54.7627 25.4041 55.689 25.4654 56.5397 25.1847C56.7851 25.1408 57.1509 25.0778 57.4027 25.0585C57.3757 25.3487 57.334 25.6374 57.2779 25.9234C56.9984 26.777 57.0596 27.7058 57.4485 28.5151C58.0438 29.179 58.8719 29.587 59.76 29.6537C60.0478 29.7106 60.3326 29.782 60.6133 29.8675C60.5067 30.0921 60.3051 30.4021 60.1728 30.6063C59.5907 31.2938 59.2913 32.1775 59.3355 33.0782C59.6278 33.9143 60.2323 34.6042 61.0219 35.0026C61.2779 35.1742 61.5243 35.3598 61.76 35.5586C61.5256 35.7558 61.2806 35.9399 61.0261 36.1103Z" fill="#FFBC00"/>
<path d="M46.9334 24.8673C41.0424 24.8673 36.2667 29.654 36.2667 35.5588C36.2667 41.4635 41.0424 46.2503 46.9334 46.2503C52.8244 46.2503 57.6001 41.4635 57.6001 35.5588C57.593 29.657 52.8215 24.8744 46.9334 24.8673ZM46.9334 44.112C42.2206 44.112 38.4001 40.2826 38.4001 35.5588C38.4001 30.835 42.2206 27.0056 46.9334 27.0056C51.6462 27.0056 55.4667 30.835 55.4667 35.5588C55.4614 40.2804 51.644 44.1067 46.9334 44.112Z" fill="#FFBC00"/>
<path d="M50.1621 32.3115L49.4901 32.2046L49.2405 31.67C48.8191 30.7753 47.9205 30.2046 46.9333 30.2046C45.9462 30.2046 45.0476 30.7753 44.6261 31.67L44.3765 32.2046L43.7045 32.3115C42.7591 32.4571 41.9742 33.1202 41.671 34.0295C41.3679 34.9388 41.5974 35.9417 42.2656 36.6277L42.8224 37.1965L42.704 37.9246C42.5444 38.8907 42.9493 39.8634 43.7467 40.4294C44.5441 40.9954 45.5939 41.0552 46.4501 40.5835L46.7317 40.4285C46.8572 40.3591 47.0095 40.3591 47.1349 40.4285L47.4165 40.5835C48.2723 41.0553 49.3217 40.996 50.1191 40.4308C50.9166 39.8656 51.3222 38.8937 51.1637 37.9278L51.0443 37.1997L51.6011 36.6277C52.2726 35.9422 52.5042 34.9373 52.2007 34.0261C51.8972 33.1148 51.1098 32.4509 50.1621 32.3073V32.3115ZM50.0779 35.1341L49.1424 36.0899C48.9044 36.3331 48.7963 36.6754 48.8512 37.0115L49.0581 38.2752C49.0838 38.4336 49.0172 38.5927 48.8867 38.6854C48.7561 38.7781 48.5842 38.7882 48.4437 38.7115L48.1621 38.5554C47.3987 38.1328 46.4723 38.1328 45.7088 38.5554L45.4272 38.7093C45.2878 38.7896 45.1142 38.78 44.9845 38.6847C44.8502 38.5949 44.7829 38.433 44.8139 38.2742L45.0197 37.0104C45.0747 36.6743 44.9665 36.332 44.7285 36.0888L43.7931 35.133C43.6825 35.0207 43.6443 34.8558 43.694 34.7061C43.7438 34.5565 43.8732 34.4475 44.0288 34.4242L45.2629 34.2371C45.6141 34.1835 45.9157 33.9582 46.0672 33.6362L46.56 32.5906C46.6287 32.4438 46.7759 32.3501 46.9376 32.3501C47.0994 32.3501 47.2465 32.4438 47.3152 32.5906L47.808 33.6362C47.9596 33.9582 48.2611 34.1835 48.6123 34.2371L49.8464 34.4242C50.002 34.4475 50.1314 34.5565 50.1812 34.7061C50.2309 34.8558 50.1927 35.0207 50.0821 35.133L50.0779 35.1341Z" fill="#FFBC00"/>
<path d="M25.6001 35.5588H8.53339C8.53339 34.9683 8.05583 34.4896 7.46672 34.4896C6.87762 34.4896 6.40006 34.9683 6.40006 35.5588H5.33339C4.74429 35.5588 4.26672 36.0374 4.26672 36.6279C4.26672 37.2184 4.74429 37.6971 5.33339 37.6971H6.40006C6.40006 38.2875 6.87762 38.7662 7.46672 38.7662C8.05583 38.7662 8.53339 38.2875 8.53339 37.6971H25.6001C26.1892 37.6971 26.6667 37.2184 26.6667 36.6279C26.6667 36.0374 26.1892 35.5588 25.6001 35.5588Z" fill="#FFBC00"/>
<path d="M9.29704 22.6851C9.56834 22.7656 9.86046 22.7349 10.1091 22.5995C10.3578 22.4642 10.5426 22.2353 10.6229 21.9634L11.6597 18.4523H16.0714L17.1104 21.9634C17.2186 22.3297 17.5136 22.6103 17.8842 22.6995C18.2548 22.7887 18.6447 22.673 18.9071 22.3959C19.1695 22.1188 19.2645 21.7224 19.1562 21.3561L15.9093 10.3781C15.651 9.46179 14.8166 8.8291 13.8666 8.8291C12.9166 8.8291 12.0823 9.46179 11.824 10.3781L8.57704 21.3561C8.49665 21.628 8.52734 21.9208 8.66238 22.1701C8.79741 22.4193 9.02571 22.6046 9.29704 22.6851ZM13.8666 10.9864L15.4389 16.314H12.2912L13.8666 10.9864Z" fill="#FFBC00"/>
<path d="M23.4667 22.7289H24.5333C27.4774 22.7253 29.8632 20.334 29.8667 17.3831V14.1757C29.8632 11.2248 27.4774 8.83349 24.5333 8.82996H23.4667C22.2885 8.82996 21.3333 9.7873 21.3333 10.9683V20.5906C21.3333 21.7715 22.2885 22.7289 23.4667 22.7289ZM23.4667 10.9683H24.5333C26.3007 10.9683 27.7333 12.4043 27.7333 14.1757V17.3831C27.7333 19.1546 26.3007 20.5906 24.5333 20.5906H23.4667V10.9683Z" fill="#FFBC00"/>
</svg>
