<svg width="33" height="32" viewBox="0 0 33 32" fill="none" xmlns="http://www.w3.org/2000/svg">
<path d="M16.4507 32C14.2855 32 12.214 31.5781 10.2362 30.7344C8.25846 29.8906 6.55651 28.7552 5.13042 27.3281C3.70433 25.901 2.5697 24.1979 1.72654 22.2188C0.883374 20.2396 0.461792 18.1667 0.461792 16C0.461792 13.8333 0.883374 11.7604 1.72654 9.78125C2.5697 7.80208 3.70433 6.09896 5.13042 4.67188C6.55651 3.24479 8.25846 2.10938 10.2362 1.26562C12.214 0.421875 14.2855 0 16.4507 0C18.6158 0 20.6873 0.421875 22.6651 1.26562C24.6429 2.10938 26.3448 3.24479 27.7709 4.67188C29.197 6.09896 30.3317 7.80208 31.1748 9.78125C32.018 11.7604 32.4396 13.8333 32.4396 16C32.4396 18.1667 32.018 20.2396 31.1748 22.2188C30.3317 24.1979 29.197 25.901 27.7709 27.3281C26.3448 28.7552 24.6429 29.8906 22.6651 30.7344C20.6873 31.5781 18.6158 32 16.4507 32ZM24.4451 10C24.4451 9.45833 24.2526 8.98958 23.8674 8.59375C23.4823 8.19792 23.0086 8 22.4465 8H10.4548C9.91356 8 9.44513 8.19792 9.04957 8.59375C8.65402 8.98958 8.45624 9.45833 8.45624 10V12H12.0163C13.2238 10.6667 14.7019 10 16.4507 10C18.1995 10 19.6776 10.6667 20.8851 12H24.4451V10ZM12.4535 16C12.4535 17.1042 12.8438 18.0469 13.6245 18.8281C14.4052 19.6094 15.3473 20 16.4507 20C17.5541 20 18.4961 19.6094 19.2768 18.8281C20.0575 18.0469 20.4479 17.1042 20.4479 16C20.4479 14.8958 20.0575 13.9531 19.2768 13.1719C18.4961 12.3906 17.5541 12 16.4507 12C15.3473 12 14.4052 12.3906 13.6245 13.1719C12.8438 13.9531 12.4535 14.8958 12.4535 16ZM24.4451 14H22.0718C22.3216 14.6875 22.4465 15.3542 22.4465 16C22.4465 17.6667 21.8636 19.0833 20.6977 20.25C19.5319 21.4167 18.1162 22 16.4507 22C14.7852 22 13.3695 21.4167 12.2036 20.25C11.0378 19.0833 10.4548 17.6667 10.4548 16C10.4548 15.3542 10.5798 14.6875 10.8296 14H8.45624V22C8.45624 22.5625 8.64881 23.0365 9.03396 23.4219C9.41911 23.8073 9.89274 24 10.4548 24H22.4465C23.0086 24 23.4823 23.8073 23.8674 23.4219C24.2526 23.0365 24.4451 22.5625 24.4451 22V14Z" fill="black"/>
</svg>
