<svg width="64" height="66" viewBox="0 0 64 66" fill="none" xmlns="http://www.w3.org/2000/svg">
<path d="M64 6.20166C64 4.43021 62.5673 2.99417 60.7999 2.99417H33.0661V1.925C33.0661 1.33452 32.5886 0.855835 31.9994 0.855835C31.4103 0.855835 30.9328 1.33452 30.9328 1.925V2.99417H3.19894C1.64218 2.99121 0.31027 4.11411 0.046472 5.65192C-0.217326 7.18974 0.663912 8.69405 2.13225 9.21243V45.9575C0.663912 46.4759 -0.217326 47.9802 0.046472 49.518C0.31027 51.0559 1.64218 52.1788 3.19894 52.1758H22.8707L11.0081 63.1518C10.722 63.4096 10.5966 63.8019 10.6799 64.1783C10.7631 64.5548 11.0422 64.8572 11.4102 64.9696C11.7781 65.0821 12.178 64.9873 12.4567 64.7214L26.0164 52.1758H30.9328V63.9366C30.9328 64.5271 31.4103 65.0058 31.9994 65.0058C32.5886 65.0058 33.0661 64.5271 33.0661 63.9366V52.1758H37.9825L51.5422 64.7214C51.9759 65.1122 52.6423 65.0814 53.0383 64.6523C53.4344 64.2232 53.4132 63.5549 52.9907 63.1518L41.1281 52.1758H60.7999C62.3567 52.1788 63.6886 51.0559 63.9524 49.518C64.2162 47.9802 63.335 46.4759 61.8666 45.9575V9.21243C63.1406 8.76097 63.9944 7.55607 64 6.20166ZM3.19894 5.1325H60.7999C61.3891 5.1325 61.8666 5.61118 61.8666 6.20166C61.8666 6.79215 61.3891 7.27083 60.7999 7.27083H3.19894C2.60983 7.27083 2.13225 6.79215 2.13225 6.20166C2.13225 5.61118 2.60983 5.1325 3.19894 5.1325ZM59.7333 45.7608H4.26562V9.40916H59.7333V45.7608ZM60.7999 50.0375H3.19894C2.60983 50.0375 2.13225 49.5588 2.13225 48.9683C2.13225 48.3778 2.60983 47.8991 3.19894 47.8991H60.7999C61.3891 47.8991 61.8666 48.3778 61.8666 48.9683C61.8666 49.5588 61.3891 50.0375 60.7999 50.0375Z" fill="#FFBC00"/>
<path d="M9.59905 25.4466C9.96326 25.4431 10.3241 25.3765 10.6657 25.2499V26.195C10.6707 27.0689 11.2009 27.8536 12.0087 28.1826L15.4776 29.5725C16.0525 29.7997 16.6972 29.7673 17.2465 29.4837C17.7959 29.2001 18.1966 28.6928 18.3459 28.0917L19.1096 25.8315L20.379 26.2592C20.7761 27.8283 22.2799 28.853 23.8818 28.646C25.4837 28.439 26.679 27.0654 26.666 25.4466V14.7549C26.6708 13.1417 25.4768 11.7771 23.8803 11.5714C22.2839 11.3658 20.7844 12.3835 20.3822 13.9456L12.478 16.5864C11.839 15.2312 10.3471 14.5022 8.88831 14.8324C7.42954 15.1625 6.39495 16.4635 6.399 17.9624V22.2391C6.399 24.0106 7.83171 25.4466 9.59905 25.4466ZM12.7991 18.7322L20.2659 16.2379V23.9626L12.7991 21.4693V18.7322ZM16.3117 27.4566C16.2945 27.4989 16.2796 27.5421 16.2669 27.586L12.7991 26.195V23.721L17.0893 25.1547L16.3117 27.4566ZM22.3993 14.7549C22.3993 14.1645 22.8768 13.6858 23.466 13.6858C24.0551 13.6858 24.5326 14.1645 24.5326 14.7549V25.4466C24.5326 26.0371 24.0551 26.5158 23.466 26.5158C22.8768 26.5158 22.3993 26.0371 22.3993 25.4466V14.7549ZM8.53237 17.9624C8.53237 17.372 9.00994 16.8933 9.59905 16.8933C10.1882 16.8933 10.6657 17.372 10.6657 17.9624V22.2391C10.6657 22.8296 10.1882 23.3083 9.59905 23.3083C9.00994 23.3083 8.53237 22.8296 8.53237 22.2391V17.9624Z" fill="#FFBC00"/>
<path d="M33.0661 25.4467C32.477 25.4467 31.9995 25.9253 31.9995 26.5158V42.5533C31.9995 43.1438 32.477 43.6225 33.0661 43.6225C33.6552 43.6225 34.1328 43.1438 34.1328 42.5533V26.5158C34.1328 25.9253 33.6552 25.4467 33.0661 25.4467Z" fill="#FFBC00"/>
<path d="M37.3329 23.3084C36.7437 23.3084 36.2662 23.7871 36.2662 24.3776V42.5534C36.2662 43.1439 36.7437 43.6226 37.3329 43.6226C37.922 43.6226 38.3995 43.1439 38.3995 42.5534V24.3776C38.3995 23.7871 37.922 23.3084 37.3329 23.3084Z" fill="#FFBC00"/>
<path d="M28.7994 43.6224C29.3886 43.6224 29.8661 43.1437 29.8661 42.5532V28.6541C29.8661 28.0636 29.3886 27.5849 28.7994 27.5849C28.2103 27.5849 27.7328 28.0636 27.7328 28.6541V42.5532C27.7328 43.1437 28.2103 43.6224 28.7994 43.6224Z" fill="#FFBC00"/>
<path d="M24.5327 30.7924C23.9436 30.7924 23.466 31.2711 23.466 31.8616V42.5532C23.466 43.1437 23.9436 43.6224 24.5327 43.6224C25.1218 43.6224 25.5994 43.1437 25.5994 42.5532V31.8616C25.5994 31.2711 25.1218 30.7924 24.5327 30.7924Z" fill="#FFBC00"/>
<path d="M20.2659 31.8617C19.6768 31.8617 19.1992 32.3404 19.1992 32.9309V42.5534C19.1992 43.1438 19.6768 43.6225 20.2659 43.6225C20.855 43.6225 21.3326 43.1438 21.3326 42.5534V32.9309C21.3326 32.3404 20.855 31.8617 20.2659 31.8617Z" fill="#FFBC00"/>
<path d="M15.9991 32.9309C15.41 32.9309 14.9324 33.4096 14.9324 34.0001V42.5534C14.9324 43.1439 15.41 43.6226 15.9991 43.6226C16.5882 43.6226 17.0658 43.1439 17.0658 42.5534V34.0001C17.0658 33.4096 16.5882 32.9309 15.9991 32.9309Z" fill="#FFBC00"/>
<path d="M11.7325 33.9999C11.1434 33.9999 10.6658 34.4786 10.6658 35.0691V42.5533C10.6658 43.1438 11.1434 43.6224 11.7325 43.6224C12.3216 43.6224 12.7992 43.1438 12.7992 42.5533V35.0691C12.7992 34.4786 12.3216 33.9999 11.7325 33.9999Z" fill="#FFBC00"/>
<path d="M7.46567 43.6224C8.05479 43.6224 8.53236 43.1437 8.53236 42.5532V31.8616C8.53236 31.2711 8.05479 30.7924 7.46567 30.7924C6.87656 30.7924 6.39899 31.2711 6.39899 31.8616V42.5532C6.39899 43.1437 6.87656 43.6224 7.46567 43.6224Z" fill="#FFBC00"/>
<path d="M40.533 35.0691C40.533 39.793 44.3536 43.6225 49.0665 43.6225C53.7794 43.6225 57.6 39.793 57.6 35.0691C57.6 30.3453 53.7794 26.5158 49.0665 26.5158C44.3558 26.5211 40.5383 30.3475 40.533 35.0691ZM50.1332 41.3879V36.1383H55.3706C54.9125 38.8246 52.8132 40.9288 50.1332 41.3879ZM55.3706 34H49.8057L47.8472 28.7739C48.249 28.6954 48.6572 28.6553 49.0665 28.6541C52.1861 28.6599 54.848 30.9172 55.3706 34ZM45.8515 29.5309L47.9998 35.2648V41.3879C45.3427 40.9417 43.2504 38.8729 42.7691 36.216C42.2877 33.5591 43.5206 30.885 45.8515 29.5309Z" fill="#FFBC00"/>
<path d="M31.9994 14.7549H40.5329C41.122 14.7549 41.5996 14.2762 41.5996 13.6857C41.5996 13.0953 41.122 12.6166 40.5329 12.6166H31.9994C31.4103 12.6166 30.9327 13.0953 30.9327 13.6857C30.9327 14.2762 31.4103 14.7549 31.9994 14.7549Z" fill="#FFBC00"/>
<path d="M31.9994 19.0316H45.8663C46.4554 19.0316 46.933 18.553 46.933 17.9625C46.933 17.372 46.4554 16.8933 45.8663 16.8933H31.9994C31.4103 16.8933 30.9327 17.372 30.9327 17.9625C30.9327 18.553 31.4103 19.0316 31.9994 19.0316Z" fill="#FFBC00"/>
<path d="M50.1331 19.0316H54.3998C54.9889 19.0316 55.4665 18.553 55.4665 17.9625C55.4665 17.372 54.9889 16.8933 54.3998 16.8933H50.1331C49.544 16.8933 49.0664 17.372 49.0664 17.9625C49.0664 18.553 49.544 19.0316 50.1331 19.0316Z" fill="#FFBC00"/>
</svg>
