<svg width="64" height="65" viewBox="0 0 64 65" fill="none" xmlns="http://www.w3.org/2000/svg">
<path d="M62.6357 23.3532L53.3333 16.8261V2.41503C53.3333 1.23408 52.3782 0.276733 51.2 0.276733H12.8C11.6218 0.276733 10.6667 1.23408 10.6667 2.41503V16.8261L1.36533 23.3532C0.509946 23.9532 0.000336437 24.9337 0 25.9801V60.149C0 62.5109 1.91025 64.4256 4.26667 64.4256H59.7333C62.0898 64.4256 64 62.5109 64 60.149V25.9801C63.9999 24.9339 63.4907 23.9534 62.6357 23.3532ZM61.6939 60.9872L40.5589 44.1118L61.8667 27.0899V60.149C61.8669 60.438 61.8081 60.724 61.6939 60.9893V60.9872ZM61.1541 24.9216L53.3333 31.1751V19.4369L61.1541 24.9216ZM51.2 2.41503V32.8761L38.8469 42.7443L35.3195 39.9282C33.3785 38.3716 30.6204 38.3716 28.6795 39.9282L25.1531 42.7443L12.8 32.8761V2.41503H51.2ZM2.30613 60.9893C2.19191 60.724 2.1331 60.438 2.13333 60.149L2.13333 27.0899L23.4411 44.1118L2.30613 60.9893ZM10.6667 31.1751L2.84587 24.9238L10.6667 19.4369V31.1751ZM4.26667 62.2873C4.2176 62.2873 4.17173 62.2766 4.12267 62.2723L30.0075 41.6025C31.1719 40.6681 32.8271 40.6681 33.9915 41.6025L59.8773 62.2723C59.8283 62.2723 59.7824 62.2873 59.7333 62.2873H4.26667Z" fill="#FFBC00"/>
<path d="M45.8666 12.0374C46.3842 12.0379 46.8267 12.4106 46.9162 12.9215C47.0057 13.4324 46.7165 13.934 46.2301 14.1113C45.7437 14.2886 45.2006 14.0903 44.9418 13.6411C44.6385 13.1496 44.0004 12.9887 43.5012 13.2778C43.0019 13.5669 42.8222 14.2013 43.0954 14.7102C43.8719 16.0583 45.5019 16.6529 46.9612 16.1205C48.4205 15.5881 49.2878 14.0824 49.0181 12.5495C48.7484 11.0166 47.4196 9.89903 45.8666 9.89907C45.3491 9.89857 44.9066 9.52579 44.8171 9.0149C44.7276 8.504 45.0168 8.00239 45.5032 7.82514C45.9896 7.64788 46.5327 7.84613 46.7914 8.29535C47.0948 8.78682 47.7329 8.94771 48.2321 8.65862C48.7314 8.36953 48.9111 7.73511 48.6378 7.2262C47.8614 5.87818 46.2314 5.28354 44.7721 5.81592C43.3128 6.34831 42.4455 7.85404 42.7152 9.38694C42.9849 10.9199 44.3137 12.0374 45.8666 12.0374Z" fill="#FFBC00"/>
<path d="M33.953 16.298C34.4165 16.378 34.8775 16.1443 35.088 15.7228L36.2666 13.3589L37.44 15.7228C37.6216 16.087 37.9938 16.3162 38.4 16.314C38.4604 16.3139 38.5207 16.3086 38.5802 16.298C39.0432 16.2183 39.3996 15.8446 39.4581 15.3775L40.5248 6.82428C40.583 6.2466 40.1706 5.72793 39.5958 5.65592C39.021 5.5839 38.4939 5.98486 38.4085 6.55913L37.7781 11.6098L37.2266 10.4904C37.0261 10.1533 36.6635 9.94684 36.272 9.94684C35.8805 9.94684 35.5178 10.1533 35.3173 10.4904L34.7552 11.6098L34.1248 6.5602C34.0859 6.17416 33.8414 5.83955 33.4859 5.68591C33.1304 5.53227 32.7198 5.58372 32.413 5.82033C32.1062 6.05695 31.9514 6.44159 32.0085 6.82535L33.0752 15.3785C33.1341 15.8452 33.4905 16.2185 33.953 16.298Z" fill="#FFBC00"/>
<path d="M16 16.3141C16.5891 16.3141 17.0667 15.8354 17.0667 15.2449V11.2207L19.312 15.7228C19.4927 16.0853 19.8624 16.3143 20.2667 16.3141C20.3492 16.3138 20.4315 16.3044 20.512 16.2863C20.9936 16.1722 21.3337 15.741 21.3333 15.2449V6.69175C21.3333 6.10127 20.8558 5.6226 20.2667 5.6226C19.6776 5.6226 19.2 6.10127 19.2 6.69175V10.716L16.96 6.21384C16.7423 5.76323 16.2419 5.52434 15.7556 5.639C15.2694 5.75365 14.9277 6.19113 14.9333 6.69175V15.2449C14.9333 15.8354 15.4109 16.3141 16 16.3141Z" fill="#FFBC00"/>
<path d="M24.5334 16.3139H28.8C29.3891 16.3139 29.8667 15.8352 29.8667 15.2448C29.8667 14.6543 29.3891 14.1756 28.8 14.1756H25.6V12.0373H26.6667C27.2558 12.0373 27.7334 11.5586 27.7334 10.9682C27.7334 10.3777 27.2558 9.89903 26.6667 9.89903H25.6V7.76073H28.8C29.3891 7.76073 29.8667 7.28206 29.8667 6.69158C29.8667 6.10111 29.3891 5.62244 28.8 5.62244H24.5334C23.9443 5.62244 23.4667 6.10111 23.4667 6.69158V15.2448C23.4667 15.8352 23.9443 16.3139 24.5334 16.3139Z" fill="#FFBC00"/>
<path d="M17.0666 27.0053H46.9333C48.1115 27.0053 49.0666 26.048 49.0666 24.867V20.5904C49.0666 19.4095 48.1115 18.4521 46.9333 18.4521H17.0666C15.8884 18.4521 14.9333 19.4095 14.9333 20.5904V24.867C14.9333 26.048 15.8884 27.0053 17.0666 27.0053ZM17.0666 20.5904H46.9333V24.867H17.0666V20.5904Z" fill="#FFBC00"/>
<path d="M15.9999 31.282H47.9999C48.589 31.282 49.0666 30.8033 49.0666 30.2128C49.0666 29.6224 48.589 29.1437 47.9999 29.1437H15.9999C15.4108 29.1437 14.9333 29.6224 14.9333 30.2128C14.9333 30.8033 15.4108 31.282 15.9999 31.282Z" fill="#FFBC00"/>
<path d="M44.8001 33.4202H19.2001C18.611 33.4202 18.1334 33.8988 18.1334 34.4893C18.1334 35.0798 18.611 35.5585 19.2001 35.5585H44.8001C45.3892 35.5585 45.8667 35.0798 45.8667 34.4893C45.8667 33.8988 45.3892 33.4202 44.8001 33.4202Z" fill="#FFBC00"/>
<path d="M58.6666 34.4895C58.0775 34.4895 57.5999 34.9682 57.5999 35.5586V51.5959C57.5999 52.1863 58.0775 52.665 58.6666 52.665C59.2557 52.665 59.7333 52.1863 59.7333 51.5959V35.5586C59.7333 34.9682 59.2557 34.4895 58.6666 34.4895Z" fill="#FFBC00"/>
<path d="M5.33336 34.4895C4.74426 34.4895 4.26669 34.9682 4.26669 35.5586V51.5959C4.26669 52.1863 4.74426 52.665 5.33336 52.665C5.92246 52.665 6.40003 52.1863 6.40003 51.5959V35.5586C6.40003 34.9682 5.92246 34.4895 5.33336 34.4895Z" fill="#FFBC00"/>
<path d="M42.6667 58.0107H21.3334C20.7443 58.0107 20.2667 58.4894 20.2667 59.0799C20.2667 59.6704 20.7443 60.149 21.3334 60.149H42.6667C43.2558 60.149 43.7334 59.6704 43.7334 59.0799C43.7334 58.4894 43.2558 58.0107 42.6667 58.0107Z" fill="#FFBC00"/>
</svg>
