<?xml version="1.0" encoding="UTF-8"?>
<!DOCTYPE svg PUBLIC "-//W3C//DTD SVG 1.1//EN" "http://www.w3.org/Graphics/SVG/1.1/DTD/svg11.dtd">
<!-- Creator: CorelDRAW 2020 (64 Bit) -->
<svg xmlns="http://www.w3.org/2000/svg" xml:space="preserve" width="57mm" height="20mm" version="1.1" style="shape-rendering:geometricPrecision; text-rendering:geometricPrecision; image-rendering:optimizeQuality; fill-rule:evenodd; clip-rule:evenodd"
viewBox="0 0 5700 2000"
 xmlns:xlink="http://www.w3.org/1999/xlink"
 xmlns:xodm="http://www.corel.com/coreldraw/odm/2003">
 <defs>
  <style type="text/css">
   <![CDATA[
    .fil2 {fill:#FEFEFE;fill-rule:nonzero}
    .fil5 {fill:#4B4B4D;fill-rule:nonzero}
    .fil3 {fill:#F79633;fill-rule:nonzero}
    .fil4 {fill:#F1613A;fill-rule:nonzero}
    .fil1 {fill:#ED3237;fill-rule:nonzero}
    .fil0 {fill:#F8C54C;fill-rule:nonzero}
   ]]>
  </style>
 </defs>
 <g id="Camada_x0020_1">
  <metadata id="CorelCorpID_0Corel-Layer"/>
  <g id="_2234619641584">
   <path class="fil0" d="M789.96 1081.56c7.28,15.16 0.87,33.29 -14.3,40.53 -15.16,7.3 -33.3,0.88 -40.57,-14.25 -7.25,-15.2 -0.87,-33.31 14.3,-40.61 15.14,-7.22 33.29,-0.84 40.57,14.33z"/>
   <path class="fil0" d="M362.45 325.44c7.28,15.22 0.86,33.34 -14.29,40.61 -15.16,7.24 -33.32,0.84 -40.58,-14.33 -7.28,-15.09 -0.86,-33.29 14.29,-40.57 15.17,-7.22 33.32,-0.84 40.58,14.29z"/>
   <path class="fil0" d="M671.92 938.5c8.61,18.03 1.02,39.65 -17.02,48.26 -18,8.64 -39.63,1.02 -48.25,-17 -8.64,-18.03 -1.03,-39.62 16.98,-48.23 18.04,-8.64 39.66,-1.05 48.29,16.97z"/>
   <path class="fil0" d="M612.3 747.12c6.55,13.69 0.78,30.02 -12.88,36.55 -13.66,6.6 -29.99,0.81 -36.56,-12.87 -6.5,-13.63 -0.76,-29.96 12.89,-36.56 13.67,-6.52 30.01,-0.7 36.55,12.88z"/>
   <path class="fil0" d="M953.31 1155.92c6.54,13.68 0.75,30.03 -12.89,36.54 -13.69,6.58 -30.03,0.79 -36.58,-12.84 -6.5,-13.68 -0.76,-29.99 12.9,-36.57 13.64,-6.56 30.01,-0.75 36.57,12.87z"/>
   <path class="fil0" d="M410.06 491.78c6.56,13.65 0.78,30.02 -12.88,36.51 -13.62,6.56 -30,0.81 -36.56,-12.87 -6.52,-13.66 -0.75,-30.03 12.9,-36.52 13.64,-6.56 30.01,-0.81 36.54,12.88z"/>
   <path class="fil0" d="M560.24 570.2c8.77,18.31 1.03,40.29 -17.29,49.04 -18.32,8.75 -40.28,1.06 -49.06,-17.29 -8.78,-18.28 -1.03,-40.28 17.28,-49.1 18.33,-8.75 40.28,-0.99 49.07,17.35z"/>
   <path class="fil0" d="M358.19 114.38c8.77,18.3 1.05,40.28 -17.28,49.03 -18.33,8.8 -40.29,1.06 -49.07,-17.28 -8.75,-18.31 -1.01,-40.25 17.29,-49.04 18.32,-8.78 40.28,-1.05 49.06,17.29z"/>
   <path class="fil1" d="M1158.65 1414.37c24.52,-22.2 62.07,-21.28 84,2.11 21.89,23.42 19.83,60.44 -4.65,82.62 -24.5,22.3 -62.08,21.31 -83.97,-2.12 -21.93,-23.38 -19.84,-60.38 4.62,-82.61zm20.51 -110.31c12.47,-11.3 31.59,-10.81 42.72,1.11 11.13,11.9 10.06,30.73 -2.36,41.99 -12.47,11.36 -31.54,10.86 -42.71,-1.06 -11.16,-11.89 -10.1,-30.73 2.35,-42.04zm268.12 123c66.33,-38.34 103.74,-86.71 102.7,-132.64 -1.08,-45.97 -40.68,-92.57 -108.68,-127.81l-210.78 -109.33c-169.53,205.64 -206.86,446.37 -281.08,657.86l497.84 -288.08z"/>
   <path class="fil2" d="M1219.52 1347.16c12.42,-11.26 13.49,-30.09 2.36,-41.99 -11.13,-11.92 -30.25,-12.41 -42.72,-1.11 -12.45,11.31 -13.51,30.15 -2.35,42.04 11.17,11.92 30.24,12.42 42.71,1.06z"/>
   <path class="fil2" d="M1154.03 1496.98c21.89,23.43 59.47,24.42 83.97,2.12 24.48,-22.18 26.54,-59.2 4.65,-82.62 -21.93,-23.39 -59.48,-24.31 -84,-2.11 -24.46,22.23 -26.55,59.23 -4.62,82.61z"/>
   <path class="fil0" d="M535.91 1859.57c175.75,-131.45 254.78,-342.69 373.9,-543.77 -107.09,153.18 -221.02,290.3 -413.36,365.41l-1.4 32.91c-2.83,65.47 11.92,116.98 40.86,145.45z"/>
   <path class="fil3" d="M551.68 1872.03c31.56,19.08 76.8,17.46 127.72,-3.75 200.82,-231.07 219.9,-585.54 483.04,-846.31l-7.74 -4.02c-50.13,41.02 -93.29,85.59 -131.4,132.4 -39.08,55.81 -75.9,111.65 -113.49,165.45 -119.12,201.08 -198.15,412.32 -373.9,543.77 4.87,4.8 10.1,9 15.77,12.46z"/>
   <path class="fil1" d="M853.14 1770.85l96.3 -55.71c74.22,-211.49 111.55,-452.22 281.08,-657.86l-61.07 -31.67c-194.93,234.17 -216.63,514.34 -316.31,745.24z"/>
   <path class="fil4" d="M1162.44 1021.97c-263.14,260.77 -282.22,615.24 -483.04,846.31 12.51,-5.25 25.37,-11.56 38.46,-19.15l135.28 -78.28c99.68,-230.9 121.38,-511.07 316.31,-745.24l-7.01 -3.64z"/>
   <path class="fil5" d="M1466.49 1118.06l-649.42 -336.86 -271.23 -468.74c22.42,-32.42 37.06,-56.22 16.63,-91.58 -28.62,-49.39 -88.98,-42.72 -140.33,-12.98l10.96 18.9 86.66 149.8 257.96 445.8 663.58 344.21c68,35.24 107.6,81.84 108.68,127.81 1.04,45.93 -36.37,94.3 -102.7,132.64l-729.42 422.07c-66.3,38.37 -126.86,46.67 -166.18,22.9 -39.3,-23.81 -59.94,-81.39 -56.63,-157.91l32.27 -746.83 -268.9 -464.76 -16.71 -28.85 -58.98 -101.95 -10.82 -18.98c-51.36,29.63 -87.37,78.71 -58.77,128.14 20.45,35.3 48.37,34.49 87.63,31.21l271.22 468.74 -31.6 730.92c-8.8,203.69 128.39,286.84 304.85,184.72l729.45 -422.07c176.49,-102.13 172.79,-262.48 -8.2,-356.35z"/>
   <path class="fil5" d="M2124.98 1104.2c-6.78,5.65 -19.34,13.27 -37.68,22.86 -18.35,9.6 -40.78,18.07 -67.31,25.4 -26.53,7.34 -55.88,10.73 -88.06,10.16 -49.1,-1.13 -92.99,-10.02 -131.65,-26.67 -38.67,-16.65 -71.4,-39.37 -98.22,-68.15 -26.81,-28.79 -47.27,-61.81 -61.38,-99.06 -14.11,-37.26 -21.17,-77.05 -21.17,-119.38 0,-47.42 7.2,-90.88 21.59,-130.39 14.4,-39.51 35,-73.66 61.81,-102.45 26.81,-28.79 58.84,-51.08 96.1,-66.89 37.25,-15.8 78.46,-23.7 123.61,-23.7 41.77,0 78.74,5.64 110.92,16.93 32.17,11.29 58.42,23.43 78.74,36.41l-48.26 115.99c-14.12,-10.72 -32.88,-21.87 -56.31,-33.44 -23.42,-11.57 -50.38,-17.36 -80.86,-17.36 -23.7,0 -46.42,4.94 -68.15,14.82 -21.73,9.88 -40.92,23.85 -57.58,41.91 -16.65,18.06 -29.77,39.09 -39.37,63.08 -9.59,23.98 -14.39,50.09 -14.39,78.31 0,29.92 4.38,57.29 13.12,82.13 8.75,24.83 21.31,46.14 37.68,63.92 16.37,17.78 35.98,31.47 58.84,41.07 22.86,9.59 48.69,14.39 77.47,14.39 33.31,0 61.81,-5.36 85.52,-16.09 23.71,-10.72 41.77,-22.01 54.19,-33.86l50.8 110.06z"/>
   <path id="1" class="fil5" d="M2228.27 1155.85l0 -668.02 115.99 0 0 372.53 -0.84 -14.39c12.98,-23.14 31.32,-41.91 55.03,-56.3 23.71,-14.4 52.78,-21.59 87.21,-21.59 34.99,0 64.2,10.3 87.63,30.9 23.42,20.6 35.42,47.27 35.98,80.01l0 276.86 -118.53 0 0 -232.83c-0.57,-16.37 -4.94,-29.5 -13.13,-39.37 -8.18,-9.88 -21.87,-14.82 -41.06,-14.82 -18.06,0 -33.87,5.93 -47.41,17.78 -13.55,11.85 -23.99,27.94 -31.33,48.26 -7.34,20.32 -11.01,43.74 -11.01,70.27l0 150.71 -118.53 0z"/>
   <path id="2" class="fil5" d="M2731.19 785.86l118.53 0 0 369.99 -118.53 0 0 -369.99zm-2.54 -131.24c0,-17.5 6.91,-31.89 20.74,-43.18 13.83,-11.29 28.65,-16.93 44.45,-16.93 15.81,0 30.34,5.64 43.61,16.93 13.26,11.29 19.89,25.68 19.89,43.18 0,17.5 -6.63,31.75 -19.89,42.76 -13.27,11 -27.8,16.51 -43.61,16.51 -15.8,0 -30.62,-5.51 -44.45,-16.51 -13.83,-11.01 -20.74,-25.26 -20.74,-42.76z"/>
   <path id="3" class="fil5" d="M3079.17 785.86l9.31 66.04 -1.69 -5.93c12.98,-23.14 31.32,-41.91 55.03,-56.3 23.71,-14.4 52.78,-21.59 87.21,-21.59 34.99,0 64.2,10.3 87.63,30.9 23.42,20.6 35.42,47.27 35.98,80.01l0 276.86 -118.53 0 0 -232.83c-0.57,-16.37 -4.94,-29.5 -13.13,-39.37 -8.18,-9.88 -21.87,-14.82 -41.06,-14.82 -18.06,0 -33.87,5.93 -47.41,17.78 -13.55,11.85 -23.99,27.94 -31.33,48.26 -7.34,20.32 -11.01,43.74 -11.01,70.27l0 150.71 -118.53 0 0 -369.99 107.53 0z"/>
   <path id="4" class="fil5" d="M3630.35 1166.01c-34.43,0 -65.62,-6.91 -93.56,-20.74 -27.94,-13.83 -50.09,-35.14 -66.46,-63.93 -16.37,-28.78 -24.56,-65.47 -24.56,-110.06 0,-41.77 8.47,-77.9 25.4,-108.38 16.94,-30.48 39.23,-54.04 66.89,-70.69 27.66,-16.66 57.01,-24.98 88.05,-24.98 36.69,0 64.49,6.07 83.4,18.2 18.91,12.14 34.57,25.54 46.99,40.22l-5.08 14.39 11.01 -54.18 110.07 0 0 369.99 -118.54 0 0 -80.43 9.31 25.4c-1.12,0 -4.51,3.24 -10.16,9.73 -5.64,6.49 -13.97,14.11 -24.97,22.86 -11.01,8.75 -24.56,16.37 -40.64,22.86 -16.09,6.49 -35.14,9.74 -57.15,9.74zm33.86 -96.52c14.12,0 26.82,-2.12 38.1,-6.35 11.29,-4.23 21.17,-10.44 29.64,-18.63 8.46,-8.18 15.8,-18.48 22.01,-30.9l0 -90.59c-4.51,-12.42 -11.29,-23.01 -20.32,-31.75 -9.03,-8.75 -19.75,-15.53 -32.17,-20.32 -12.42,-4.8 -26.25,-7.2 -41.49,-7.2 -16.93,0 -32.6,4.37 -46.99,13.12 -14.39,8.75 -25.82,20.75 -34.29,35.99 -8.47,15.24 -12.7,32.73 -12.7,52.49 0,19.75 4.52,37.53 13.55,53.34 9.03,15.8 21.02,28.22 35.98,37.25 14.96,9.03 31.19,13.55 48.68,13.55z"/>
   <polygon class="fil1" points="4309.31,557.1 4349.95,556.25 4349.1,1118.44 4679.31,1117.6 4678.46,1157.39 4308.46,1157.39 "/>
   <path id="1" class="fil1" d="M4935.84 1164.16c-31.6,0 -60.25,-7.19 -85.93,-21.59 -25.69,-14.39 -46.01,-34.57 -60.96,-60.53 -14.96,-25.97 -22.44,-56.17 -22.44,-90.6 0,-36.69 7.9,-68.15 23.71,-94.4 15.8,-26.25 37.25,-46.29 64.34,-60.11 27.1,-13.83 57.86,-20.75 92.29,-20.75 29.35,0 57.15,8.75 83.4,26.25 26.24,17.5 45.01,39.51 56.3,66.04l-5.93 11.85 5.08 -93.98 35.56 0 0 331.05 -39.79 0 0 -102.45 8.47 15.24c-3.95,11.29 -10.73,22.44 -20.32,33.45 -9.6,11 -21.31,21.16 -35.14,30.48 -13.83,9.31 -29.07,16.65 -45.72,22.01 -16.65,5.36 -34.29,8.04 -52.92,8.04zm8.47 -33.86c24.84,0 47.27,-5.22 67.31,-15.67 20.04,-10.44 36.27,-24.97 48.68,-43.6 12.42,-18.63 19.48,-40.08 21.17,-64.35l0 -47.41c-4.51,-20.89 -13.4,-39.51 -26.67,-55.88 -13.26,-16.37 -29.49,-29.35 -48.68,-38.95 -19.19,-9.59 -40.08,-14.39 -62.66,-14.39 -24.83,0 -47.69,5.78 -68.58,17.36 -20.88,11.57 -37.53,27.79 -49.95,48.68 -12.42,20.88 -18.63,45.44 -18.63,73.66 0,25.96 6.21,49.53 18.63,70.7 12.42,21.16 29.21,38.1 50.38,50.8 21.16,12.7 44.17,19.05 69,19.05z"/>
   <path id="2" class="fil1" d="M5457.39 1164.16c-33.86,0 -64.77,-8.75 -92.71,-26.24 -27.94,-17.5 -48.4,-39.51 -61.38,-66.04l8.47 -22.86 0 108.37 -39.8 0 0 -643.47 39.8 0 0 409.79 -5.08 -22.01c12.98,-25.97 33.58,-46.71 61.8,-62.23 28.23,-15.53 59.27,-23.29 93.14,-23.29 31.04,0 59.26,7.48 84.66,22.44 25.4,14.96 45.58,35.42 60.54,61.38 14.96,25.97 22.44,55.6 22.44,88.9 0,37.26 -7.9,69.01 -23.71,95.25 -15.8,26.25 -36.69,46.15 -62.65,59.69 -25.97,13.55 -54.47,20.32 -85.52,20.32zm-6.77 -34.71c28.22,0 52.64,-6.07 73.24,-18.2 20.6,-12.14 36.55,-28.79 47.83,-49.96 11.29,-21.16 16.94,-45.29 16.94,-72.39 0,-25.4 -5.79,-48.68 -17.36,-69.85 -11.57,-21.16 -27.66,-38.1 -48.26,-50.8 -20.6,-12.7 -44.73,-19.05 -72.39,-19.05 -23.14,0 -44.45,4.8 -63.92,14.4 -19.48,9.59 -35.7,22.57 -48.69,38.94 -12.98,16.37 -21.73,35.28 -26.24,56.73l0 51.65c2.25,20.88 9.59,40.35 22.01,58.42 12.42,18.06 28.79,32.59 49.11,43.6 20.32,11.01 42.9,16.51 67.73,16.51z"/>
  </g>
 </g>
</svg>
